<?xml version="1.0" encoding="UTF-8"?>
<svg width="1102px" height="1094px" viewBox="0 0 1102 1094" version="1.1" xmlns="http://www.w3.org/2000/svg" xmlns:xlink="http://www.w3.org/1999/xlink">
    <title>Group</title>
    <g id="Symbols" stroke="none" stroke-width="1" fill="none" fill-rule="evenodd">
        <g id="QLMedia-Logo" transform="translate(-10.000000, -6.000000)" fill-rule="nonzero">
            <g id="Group" transform="translate(11.285302, 7.160105)">
                <path d="M549.959262,846.463442 C597.924757,846.463442 642.899529,840.766827 684.883578,829.373598 C726.867628,817.980369 765.433709,802.912823 800.58182,784.170961 C835.729932,765.429099 867.118279,744.807355 894.74686,722.305727 C922.37544,699.804099 945.817009,677.245506 965.071567,654.629946 C984.326124,632.014386 998.966423,611.10781 1008.99247,591.910219 C1019.01851,572.712628 1024.03153,557.246319 1024.03153,545.511293 C1024.03153,533.8902 1019.01851,518.480857 1008.99247,499.283266 C998.966423,480.085675 984.326124,459.179099 965.071567,436.563539 C945.817009,413.94798 922.37544,391.389386 894.74686,368.887758 C867.118279,346.386131 835.701449,325.792869 800.496371,307.107973 C765.291293,288.423077 726.696729,273.384015 684.71268,261.990786 C642.72863,250.597556 597.810824,244.900942 549.959262,244.900942 C502.905225,244.900942 458.528598,250.597556 416.829379,261.990786 C375.13016,273.384015 336.649529,288.423077 301.387485,307.107973 C266.12544,325.792869 234.594679,346.386131 206.795199,368.887758 C178.99572,391.389386 155.35477,413.94798 135.872348,436.563539 C116.389926,459.179099 101.521762,480.085675 91.2678556,499.283266 C81.0139494,518.480857 75.8869963,533.8902 75.8869963,545.511293 C75.8869963,557.246319 81.0139494,572.712628 91.2678556,591.910219 C101.521762,611.10781 116.389926,632.014386 135.872348,654.629946 C155.35477,677.245506 178.967237,699.804099 206.70975,722.305727 C234.452263,744.807355 265.954542,765.429099 301.216586,784.170961 C336.47863,802.912823 374.959262,817.980369 416.658481,829.373598 C458.357699,840.766827 502.791293,846.463442 549.959262,846.463442 Z" id="Path" stroke="#6236FF" fill="#6236FF" transform="translate(549.959262, 545.682192) rotate(-44.000000) translate(-549.959262, -545.682192) "></path>
                <path d="M550.629064,760.351515 C508.726819,760.351515 468.726078,756.22147 430.626842,747.961379 C392.527606,739.701287 356.986758,728.763787 324.004298,715.148879 C291.021837,701.53397 261.254648,686.60884 234.702731,670.373488 C208.150813,654.138136 185.332759,637.959751 166.248568,621.838332 C147.164377,605.716912 132.540079,590.905715 122.375673,577.404738 C112.211267,563.903761 107.129064,553.279575 107.129064,545.532179 C107.129064,539.038039 112.211267,529.382277 122.375673,516.564894 C132.540079,503.747511 147.164377,489.221144 166.248568,472.985793 C185.332759,456.750441 208.150813,440.372674 234.702731,423.852492 C261.254648,407.33231 291.021837,392.036899 324.004298,377.966261 C356.986758,363.895623 392.527606,352.55936 430.626842,343.957472 C468.726078,335.355584 508.726819,331.05464 550.629064,331.05464 C592.393018,331.05464 632.29004,335.355584 670.32013,343.957472 C708.350221,352.55936 743.856496,363.895623 776.838956,377.966261 C809.821416,392.036899 839.657751,407.33231 866.34796,423.852492 C893.038169,440.372674 915.890796,456.750441 934.905841,472.985793 C953.920886,489.221144 968.545185,503.747511 978.778736,516.564894 C989.012288,529.382277 994.129064,539.038039 994.129064,545.532179 C994.129064,553.279575 989.012288,563.903761 978.778736,577.404738 C968.545185,590.905715 953.920886,605.716912 934.905841,621.838332 C915.890796,637.959751 893.038169,654.138136 866.34796,670.373488 C839.657751,686.60884 809.821416,701.53397 776.838956,715.148879 C743.856496,728.763787 708.350221,739.701287 670.32013,747.961379 C632.29004,756.22147 592.393018,760.351515 550.629064,760.351515 Z" id="Path" fill="#FFFFFF" transform="translate(550.629064, 545.703078) rotate(-43.000000) translate(-550.629064, -545.703078) "></path>
                <path d="M554.049286,606.09664 C580.321592,606.09664 604.928308,604.428643 627.869436,601.09265 C650.810563,597.756656 670.923333,593.15383 688.207744,587.284171 C705.492155,581.414512 719.005422,574.647513 728.747545,566.983174 C738.489668,559.318834 743.360729,551.158319 743.360729,542.501627 C743.360729,533.676025 738.489668,525.420497 728.747545,517.735044 C719.005422,510.049591 705.492155,503.314262 688.207744,497.529059 C670.923333,491.743855 650.810563,487.225484 627.869436,483.973947 C604.928308,480.722409 580.321592,479.09664 554.049286,479.09664 C527.651276,479.09664 502.981708,480.722409 480.04058,483.973947 C457.099452,487.225484 436.955257,491.743855 419.607993,497.529059 C402.260729,503.314262 388.716036,510.049591 378.973913,517.735044 C369.231791,525.420497 364.360729,533.676025 364.360729,542.501627 C364.486434,551.158319 369.420348,559.318834 379.16247,566.983174 C388.904593,574.647513 402.449286,581.414512 419.79655,587.284171 C437.143814,593.15383 457.256583,597.756656 480.134859,601.09265 C503.013134,604.428643 527.651276,606.09664 554.049286,606.09664 Z" id="Path" fill="#6236FF" transform="translate(553.860729, 542.596640) rotate(-133.000000) translate(-553.860729, -542.596640) "></path>
                <path d="M414.20953,730.056683 C399.626197,730.056683 387.23606,724.844281 377.03912,714.419476 C366.84218,703.994672 361.74371,691.604535 361.74371,677.249066 C361.74371,662.893597 366.84218,650.560427 377.03912,640.249554 C387.23606,629.938682 399.626197,624.783246 414.20953,624.783246 C428.792863,624.783246 441.268449,629.938682 451.636288,640.249554 C462.004126,650.560427 467.188046,662.893597 467.188046,677.249066 C467.188046,691.604535 462.004126,703.994672 451.636288,714.419476 C441.268449,724.844281 428.792863,730.056683 414.20953,730.056683 Z" id="Path" fill="#6236FF" transform="translate(414.465878, 677.419965) rotate(-87.000000) translate(-414.465878, -677.419965) "></path>
                <path d="M693.685355,466.706606 C679.102022,466.706606 666.711885,461.494203 656.514945,451.069399 C646.318005,440.644594 641.219535,428.254457 641.219535,413.898988 C641.219535,399.54352 646.318005,387.210349 656.514945,376.899477 C666.711885,366.588604 679.102022,361.433168 693.685355,361.433168 C708.268688,361.433168 720.744274,366.588604 731.112113,376.899477 C741.479951,387.210349 746.66387,399.54352 746.66387,413.898988 C746.66387,428.254457 741.479951,440.644594 731.112113,451.069399 C720.744274,461.494203 708.268688,466.706606 693.685355,466.706606 Z" id="Path" fill="#6236FF" transform="translate(693.941702, 414.069887) rotate(-87.000000) translate(-693.941702, -414.069887) "></path>
            </g>
        </g>
    </g>
</svg>